<mxfile host="2da8088e-10ff-4eee-8085-6d7d557b6d30" modified="2020-09-17T08:17:28.729Z" agent="5.0 (Windows NT 10.0; Win64; x64) AppleWebKit/537.36 (KHTML, like Gecko) Code/1.49.0 Chrome/83.0.4103.122 Electron/9.2.1 Safari/537.36" etag="3PJCPabjfxbZvXokfJHe" version="13.1.3" pages="3">
    <diagram id="6hGFLwfOUW9BJ-s0fimq" name="Page-1">
        <mxGraphModel dx="552" dy="3531" grid="0" gridSize="10" guides="1" tooltips="1" connect="1" arrows="1" fold="1" page="0" pageScale="1" pageWidth="827" pageHeight="2000" background="none" math="0" shadow="0">
            <root>
                <mxCell id="0"/>
                <mxCell id="1" parent="0"/>
                <mxCell id="LPrqTVwyO32H7xe0jWxw-1" value="" style="endArrow=open;dashed=1;endFill=0;endSize=12;html=1;strokeWidth=2;exitX=0.438;exitY=0;exitDx=0;exitDy=0;exitPerimeter=0;fontColor=#FF0000;" parent="1" source="LPrqTVwyO32H7xe0jWxw-19" edge="1">
                    <mxGeometry width="160" relative="1" as="geometry">
                        <mxPoint x="280" y="-2669" as="sourcePoint"/>
                        <mxPoint x="280" y="-2836" as="targetPoint"/>
                    </mxGeometry>
                </mxCell>
                <mxCell id="LPrqTVwyO32H7xe0jWxw-2" value="&lt;p style=&quot;margin: 0px ; margin-top: 4px ; text-align: center&quot;&gt;&lt;b&gt;&amp;lt;&amp;lt;&amp;nbsp; interface&amp;nbsp; &amp;gt;&amp;gt;&lt;/b&gt;&lt;br&gt;&lt;/p&gt;&lt;p style=&quot;margin: 4px 0px 0px ; text-align: center&quot;&gt;&lt;b&gt;Phone&lt;/b&gt;&lt;/p&gt;&lt;hr size=&quot;1&quot;&gt;&lt;p style=&quot;margin: 0px ; margin-left: 4px&quot;&gt;+ call()&lt;br&gt;&lt;/p&gt;" style="verticalAlign=top;align=left;overflow=fill;fontSize=12;fontFamily=Helvetica;html=1;strokeColor=#97D077;fontColor=#FF0000;" parent="1" vertex="1">
                    <mxGeometry x="342" y="-3098" width="190" height="70" as="geometry"/>
                </mxCell>
                <mxCell id="LPrqTVwyO32H7xe0jWxw-3" value="" style="strokeWidth=2;html=1;shape=mxgraph.flowchart.annotation_1;align=left;pointerEvents=1;dashed=1;direction=south;endArrow=block;dashed=1;endFill=0;endSize=12;html=1;strokeWidth=2;exitX=0.025;exitY=0.971;exitDx=0;exitDy=0;exitPerimeter=0;fontColor=#FF0000;" parent="1" vertex="1">
                    <mxGeometry x="278" y="-2965" width="310" height="33" as="geometry"/>
                </mxCell>
                <mxCell id="LPrqTVwyO32H7xe0jWxw-4" value="" style="endArrow=open;dashed=1;endFill=0;endSize=12;html=1;strokeWidth=2;exitX=0.557;exitY=-0.028;exitDx=0;exitDy=0;exitPerimeter=0;fontColor=#FF0000;" parent="1" source="LPrqTVwyO32H7xe0jWxw-19" edge="1">
                    <mxGeometry width="160" relative="1" as="geometry">
                        <mxPoint x="310" y="-2689" as="sourcePoint"/>
                        <mxPoint x="550" y="-2834" as="targetPoint"/>
                    </mxGeometry>
                </mxCell>
                <mxCell id="LPrqTVwyO32H7xe0jWxw-5" value="实现" style="text;align=center;fontStyle=1;verticalAlign=middle;spacingLeft=3;spacingRight=3;strokeColor=none;rotatable=0;points=[[0,0.5],[1,0.5]];portConstraint=eastwest;dashed=1;fontColor=#FF0000;" parent="1" vertex="1">
                    <mxGeometry x="290" y="-2994" width="80" height="26" as="geometry"/>
                </mxCell>
                <mxCell id="LPrqTVwyO32H7xe0jWxw-6" value="实现" style="text;align=center;fontStyle=1;verticalAlign=middle;spacingLeft=3;spacingRight=3;strokeColor=none;rotatable=0;points=[[0,0.5],[1,0.5]];portConstraint=eastwest;dashed=1;fontColor=#FF0000;" parent="1" vertex="1">
                    <mxGeometry x="519" y="-2994" width="80" height="26" as="geometry"/>
                </mxCell>
                <mxCell id="LPrqTVwyO32H7xe0jWxw-7" value="依赖/使用" style="text;align=center;fontStyle=1;verticalAlign=middle;spacingLeft=3;spacingRight=3;strokeColor=none;rotatable=0;points=[[0,0.5],[1,0.5]];portConstraint=eastwest;dashed=1;fontColor=#FF0000;" parent="1" vertex="1">
                    <mxGeometry x="207" y="-2813" width="80" height="26" as="geometry"/>
                </mxCell>
                <mxCell id="LPrqTVwyO32H7xe0jWxw-8" value="依赖/使用" style="text;align=center;fontStyle=1;verticalAlign=middle;spacingLeft=3;spacingRight=3;strokeColor=none;rotatable=0;points=[[0,0.5],[1,0.5]];portConstraint=eastwest;dashed=1;fontColor=#FF0000;" parent="1" vertex="1">
                    <mxGeometry x="480" y="-2805" width="80" height="26" as="geometry"/>
                </mxCell>
                <mxCell id="LPrqTVwyO32H7xe0jWxw-9" value="Actor" style="shape=umlActor;verticalLabelPosition=bottom;labelBackgroundColor=#ffffff;verticalAlign=top;html=1;strokeWidth=2;fontColor=#FF0000;" parent="1" vertex="1">
                    <mxGeometry x="230" y="-2636" width="30" height="60" as="geometry"/>
                </mxCell>
                <mxCell id="LPrqTVwyO32H7xe0jWxw-10" value="arg" style="text;align=center;fontStyle=1;verticalAlign=middle;spacingLeft=3;spacingRight=3;strokeColor=none;rotatable=0;points=[[0,0.5],[1,0.5]];portConstraint=eastwest;dashed=1;fontSize=13;fontColor=#FF0000;" parent="1" vertex="1">
                    <mxGeometry x="340" y="-2618" width="30" height="26" as="geometry"/>
                </mxCell>
                <mxCell id="LPrqTVwyO32H7xe0jWxw-11" value="" style="endArrow=open;startArrow=none;endFill=0;startFill=0;endSize=8;startSize=10;html=1;strokeWidth=2;fontSize=13;fontColor=#FF0000;" parent="1" target="LPrqTVwyO32H7xe0jWxw-10" edge="1">
                    <mxGeometry width="160" relative="1" as="geometry">
                        <mxPoint x="260" y="-2606.24" as="sourcePoint"/>
                        <mxPoint x="320" y="-2606.24" as="targetPoint"/>
                        <Array as="points"/>
                    </mxGeometry>
                </mxCell>
                <mxCell id="LPrqTVwyO32H7xe0jWxw-12" value="" style="endArrow=open;endFill=1;endSize=12;html=1;strokeWidth=2;fontSize=13;fontColor=#FF0000;" parent="1" edge="1">
                    <mxGeometry width="160" relative="1" as="geometry">
                        <mxPoint x="354.79999999999995" y="-2618" as="sourcePoint"/>
                        <mxPoint x="355.0000000000002" y="-2668" as="targetPoint"/>
                    </mxGeometry>
                </mxCell>
                <mxCell id="LPrqTVwyO32H7xe0jWxw-13" value="&lt;&lt;  struct  &gt;&gt;&#10;Xiaomi" style="swimlane;fontStyle=1;align=center;verticalAlign=top;childLayout=stackLayout;horizontal=1;startSize=40;horizontalStack=0;resizeParent=1;resizeParentMax=0;resizeLast=0;collapsible=1;marginBottom=0;fontColor=#FF0000;" parent="1" vertex="1">
                    <mxGeometry x="207" y="-2919" width="160" height="74" as="geometry"/>
                </mxCell>
                <mxCell id="LPrqTVwyO32H7xe0jWxw-14" value="" style="line;strokeWidth=1;fillColor=none;align=left;verticalAlign=middle;spacingTop=-1;spacingLeft=3;spacingRight=3;rotatable=0;labelPosition=right;points=[];portConstraint=eastwest;" parent="LPrqTVwyO32H7xe0jWxw-13" vertex="1">
                    <mxGeometry y="40" width="160" height="8" as="geometry"/>
                </mxCell>
                <mxCell id="LPrqTVwyO32H7xe0jWxw-15" value="+call()" style="text;strokeColor=none;fillColor=none;align=left;verticalAlign=top;spacingLeft=4;spacingRight=4;overflow=hidden;rotatable=0;points=[[0,0.5],[1,0.5]];portConstraint=eastwest;" parent="LPrqTVwyO32H7xe0jWxw-13" vertex="1">
                    <mxGeometry y="48" width="160" height="26" as="geometry"/>
                </mxCell>
                <mxCell id="LPrqTVwyO32H7xe0jWxw-16" value="&lt;&lt;  struct  &gt;&gt;&#10;Huawei" style="swimlane;fontStyle=1;align=center;verticalAlign=top;childLayout=stackLayout;horizontal=1;startSize=40;horizontalStack=0;resizeParent=1;resizeParentMax=0;resizeLast=0;collapsible=1;marginBottom=0;fontColor=#FF0000;" parent="1" vertex="1">
                    <mxGeometry x="510" y="-2922" width="160" height="74" as="geometry"/>
                </mxCell>
                <mxCell id="LPrqTVwyO32H7xe0jWxw-17" value="" style="line;strokeWidth=1;fillColor=none;align=left;verticalAlign=middle;spacingTop=-1;spacingLeft=3;spacingRight=3;rotatable=0;labelPosition=right;points=[];portConstraint=eastwest;" parent="LPrqTVwyO32H7xe0jWxw-16" vertex="1">
                    <mxGeometry y="40" width="160" height="8" as="geometry"/>
                </mxCell>
                <mxCell id="LPrqTVwyO32H7xe0jWxw-18" value="+call()" style="text;strokeColor=none;fillColor=none;align=left;verticalAlign=top;spacingLeft=4;spacingRight=4;overflow=hidden;rotatable=0;points=[[0,0.5],[1,0.5]];portConstraint=eastwest;" parent="LPrqTVwyO32H7xe0jWxw-16" vertex="1">
                    <mxGeometry y="48" width="160" height="26" as="geometry"/>
                </mxCell>
                <mxCell id="LPrqTVwyO32H7xe0jWxw-22" value="" style="endArrow=block;dashed=1;endFill=0;endSize=12;html=1;strokeWidth=2;fontColor=#FF0000;" parent="1" edge="1">
                    <mxGeometry width="160" relative="1" as="geometry">
                        <mxPoint x="428.9957251908397" y="-2977" as="sourcePoint"/>
                        <mxPoint x="428.9999999999998" y="-3026" as="targetPoint"/>
                    </mxGeometry>
                </mxCell>
                <mxCell id="LPrqTVwyO32H7xe0jWxw-23" value="" style="endArrow=open;dashed=1;endFill=0;endSize=12;html=1;strokeWidth=2;exitX=0.438;exitY=0;exitDx=0;exitDy=0;exitPerimeter=0;" parent="1" source="LPrqTVwyO32H7xe0jWxw-41" edge="1">
                    <mxGeometry width="160" relative="1" as="geometry">
                        <mxPoint x="326" y="-1867" as="sourcePoint"/>
                        <mxPoint x="326" y="-2034" as="targetPoint"/>
                    </mxGeometry>
                </mxCell>
                <mxCell id="LPrqTVwyO32H7xe0jWxw-24" value="&lt;p style=&quot;margin: 0px ; margin-top: 4px ; text-align: center&quot;&gt;&lt;b&gt;&amp;lt;&amp;lt;&amp;nbsp; interface&amp;nbsp; &amp;gt;&amp;gt;&lt;/b&gt;&lt;br&gt;&lt;/p&gt;&lt;p style=&quot;margin: 4px 0px 0px ; text-align: center&quot;&gt;&lt;b&gt;Phone&lt;/b&gt;&lt;/p&gt;&lt;hr size=&quot;1&quot;&gt;&lt;p style=&quot;margin: 0px ; margin-left: 4px&quot;&gt;+ call()&lt;br&gt;&lt;/p&gt;" style="verticalAlign=top;align=left;overflow=fill;fontSize=12;fontFamily=Helvetica;html=1;" parent="1" vertex="1">
                    <mxGeometry x="388" y="-2296" width="190" height="70" as="geometry"/>
                </mxCell>
                <mxCell id="LPrqTVwyO32H7xe0jWxw-25" value="" style="strokeWidth=2;html=1;shape=mxgraph.flowchart.annotation_1;align=left;pointerEvents=1;dashed=1;direction=south;endArrow=block;dashed=1;endFill=0;endSize=12;html=1;strokeWidth=2;exitX=0.025;exitY=0.971;exitDx=0;exitDy=0;exitPerimeter=0;" parent="1" vertex="1">
                    <mxGeometry x="324" y="-2163" width="310" height="33" as="geometry"/>
                </mxCell>
                <mxCell id="LPrqTVwyO32H7xe0jWxw-26" value="" style="endArrow=open;dashed=1;endFill=0;endSize=12;html=1;strokeWidth=2;exitX=0.557;exitY=-0.028;exitDx=0;exitDy=0;exitPerimeter=0;" parent="1" source="LPrqTVwyO32H7xe0jWxw-41" edge="1">
                    <mxGeometry width="160" relative="1" as="geometry">
                        <mxPoint x="356" y="-1887" as="sourcePoint"/>
                        <mxPoint x="596" y="-2032" as="targetPoint"/>
                    </mxGeometry>
                </mxCell>
                <mxCell id="LPrqTVwyO32H7xe0jWxw-27" value="实现" style="text;align=center;fontStyle=1;verticalAlign=middle;spacingLeft=3;spacingRight=3;strokeColor=none;rotatable=0;points=[[0,0.5],[1,0.5]];portConstraint=eastwest;dashed=1;" parent="1" vertex="1">
                    <mxGeometry x="336" y="-2192" width="80" height="26" as="geometry"/>
                </mxCell>
                <mxCell id="LPrqTVwyO32H7xe0jWxw-28" value="实现" style="text;align=center;fontStyle=1;verticalAlign=middle;spacingLeft=3;spacingRight=3;strokeColor=none;rotatable=0;points=[[0,0.5],[1,0.5]];portConstraint=eastwest;dashed=1;" parent="1" vertex="1">
                    <mxGeometry x="565" y="-2192" width="80" height="26" as="geometry"/>
                </mxCell>
                <mxCell id="LPrqTVwyO32H7xe0jWxw-29" value="依赖/使用" style="text;align=center;fontStyle=1;verticalAlign=middle;spacingLeft=3;spacingRight=3;strokeColor=none;rotatable=0;points=[[0,0.5],[1,0.5]];portConstraint=eastwest;dashed=1;" parent="1" vertex="1">
                    <mxGeometry x="253" y="-2011" width="80" height="26" as="geometry"/>
                </mxCell>
                <mxCell id="LPrqTVwyO32H7xe0jWxw-30" value="依赖/使用" style="text;align=center;fontStyle=1;verticalAlign=middle;spacingLeft=3;spacingRight=3;strokeColor=none;rotatable=0;points=[[0,0.5],[1,0.5]];portConstraint=eastwest;dashed=1;" parent="1" vertex="1">
                    <mxGeometry x="526" y="-2003" width="80" height="26" as="geometry"/>
                </mxCell>
                <mxCell id="LPrqTVwyO32H7xe0jWxw-31" value="Actor" style="shape=umlActor;verticalLabelPosition=bottom;labelBackgroundColor=#ffffff;verticalAlign=top;html=1;strokeWidth=2;" parent="1" vertex="1">
                    <mxGeometry x="276" y="-1834" width="30" height="60" as="geometry"/>
                </mxCell>
                <mxCell id="LPrqTVwyO32H7xe0jWxw-32" value="arg" style="text;align=center;fontStyle=1;verticalAlign=middle;spacingLeft=3;spacingRight=3;strokeColor=none;rotatable=0;points=[[0,0.5],[1,0.5]];portConstraint=eastwest;dashed=1;fontSize=13;" parent="1" vertex="1">
                    <mxGeometry x="386" y="-1816" width="30" height="26" as="geometry"/>
                </mxCell>
                <mxCell id="LPrqTVwyO32H7xe0jWxw-33" value="" style="endArrow=open;startArrow=none;endFill=0;startFill=0;endSize=8;startSize=10;html=1;strokeWidth=2;fontSize=13;" parent="1" target="LPrqTVwyO32H7xe0jWxw-32" edge="1">
                    <mxGeometry width="160" relative="1" as="geometry">
                        <mxPoint x="306" y="-1804.2399999999998" as="sourcePoint"/>
                        <mxPoint x="366" y="-1804.2399999999998" as="targetPoint"/>
                        <Array as="points"/>
                    </mxGeometry>
                </mxCell>
                <mxCell id="LPrqTVwyO32H7xe0jWxw-34" value="" style="endArrow=open;endFill=1;endSize=12;html=1;strokeWidth=2;fontSize=13;" parent="1" edge="1">
                    <mxGeometry width="160" relative="1" as="geometry">
                        <mxPoint x="400.79999999999995" y="-1816" as="sourcePoint"/>
                        <mxPoint x="401.0000000000002" y="-1866" as="targetPoint"/>
                    </mxGeometry>
                </mxCell>
                <mxCell id="LPrqTVwyO32H7xe0jWxw-44" value="" style="endArrow=block;dashed=1;endFill=0;endSize=12;html=1;strokeWidth=2;" parent="1" edge="1">
                    <mxGeometry width="160" relative="1" as="geometry">
                        <mxPoint x="474.9957251908397" y="-2175" as="sourcePoint"/>
                        <mxPoint x="474.9999999999998" y="-2224" as="targetPoint"/>
                    </mxGeometry>
                </mxCell>
                <mxCell id="LPrqTVwyO32H7xe0jWxw-35" value="&lt;&lt;  struct  &gt;&gt;&#10;Xiaomi" style="swimlane;fontStyle=1;align=center;verticalAlign=top;childLayout=stackLayout;horizontal=1;startSize=40;horizontalStack=0;resizeParent=1;resizeParentMax=0;resizeLast=0;collapsible=1;marginBottom=0;" parent="1" vertex="1">
                    <mxGeometry x="253" y="-2117" width="160" height="74" as="geometry"/>
                </mxCell>
                <mxCell id="LPrqTVwyO32H7xe0jWxw-36" value="" style="line;strokeWidth=1;fillColor=none;align=left;verticalAlign=middle;spacingTop=-1;spacingLeft=3;spacingRight=3;rotatable=0;labelPosition=right;points=[];portConstraint=eastwest;" parent="LPrqTVwyO32H7xe0jWxw-35" vertex="1">
                    <mxGeometry y="40" width="160" height="8" as="geometry"/>
                </mxCell>
                <mxCell id="LPrqTVwyO32H7xe0jWxw-37" value="+call()" style="text;strokeColor=none;fillColor=none;align=left;verticalAlign=top;spacingLeft=4;spacingRight=4;overflow=hidden;rotatable=0;points=[[0,0.5],[1,0.5]];portConstraint=eastwest;" parent="LPrqTVwyO32H7xe0jWxw-35" vertex="1">
                    <mxGeometry y="48" width="160" height="26" as="geometry"/>
                </mxCell>
                <mxCell id="LPrqTVwyO32H7xe0jWxw-38" value="&lt;&lt;  struct  &gt;&gt;&#10;Huawei" style="swimlane;fontStyle=1;align=center;verticalAlign=top;childLayout=stackLayout;horizontal=1;startSize=40;horizontalStack=0;resizeParent=1;resizeParentMax=0;resizeLast=0;collapsible=1;marginBottom=0;" parent="1" vertex="1">
                    <mxGeometry x="556" y="-2120" width="160" height="74" as="geometry"/>
                </mxCell>
                <mxCell id="LPrqTVwyO32H7xe0jWxw-39" value="" style="line;strokeWidth=1;fillColor=none;align=left;verticalAlign=middle;spacingTop=-1;spacingLeft=3;spacingRight=3;rotatable=0;labelPosition=right;points=[];portConstraint=eastwest;" parent="LPrqTVwyO32H7xe0jWxw-38" vertex="1">
                    <mxGeometry y="40" width="160" height="8" as="geometry"/>
                </mxCell>
                <mxCell id="LPrqTVwyO32H7xe0jWxw-40" value="+call()" style="text;strokeColor=none;fillColor=none;align=left;verticalAlign=top;spacingLeft=4;spacingRight=4;overflow=hidden;rotatable=0;points=[[0,0.5],[1,0.5]];portConstraint=eastwest;" parent="LPrqTVwyO32H7xe0jWxw-38" vertex="1">
                    <mxGeometry y="48" width="160" height="26" as="geometry"/>
                </mxCell>
                <mxCell id="LPrqTVwyO32H7xe0jWxw-41" value="&lt;&lt;  struct  &gt;&gt;&#10;PhoneFactory" style="swimlane;fontStyle=1;align=center;verticalAlign=top;childLayout=stackLayout;horizontal=1;startSize=40;horizontalStack=0;resizeParent=1;resizeParentMax=0;resizeLast=0;collapsible=1;marginBottom=0;" parent="1" vertex="1">
                    <mxGeometry x="308" y="-1968" width="180" height="78" as="geometry"/>
                </mxCell>
                <mxCell id="LPrqTVwyO32H7xe0jWxw-42" value="" style="line;strokeWidth=1;fillColor=none;align=left;verticalAlign=middle;spacingTop=-1;spacingLeft=3;spacingRight=3;rotatable=0;labelPosition=right;points=[];portConstraint=eastwest;" parent="LPrqTVwyO32H7xe0jWxw-41" vertex="1">
                    <mxGeometry y="40" width="180" height="8" as="geometry"/>
                </mxCell>
                <mxCell id="LPrqTVwyO32H7xe0jWxw-43" value="+CreatePhone(arg): Phone" style="text;strokeColor=none;fillColor=none;align=left;verticalAlign=top;spacingLeft=4;spacingRight=4;overflow=hidden;rotatable=0;points=[[0,0.5],[1,0.5]];portConstraint=eastwest;" parent="LPrqTVwyO32H7xe0jWxw-41" vertex="1">
                    <mxGeometry y="48" width="180" height="30" as="geometry"/>
                </mxCell>
                <mxCell id="LPrqTVwyO32H7xe0jWxw-19" value="&lt;&lt;  struct  &gt;&gt;&#10;PhoneFactory" style="swimlane;fontStyle=1;align=center;verticalAlign=top;childLayout=stackLayout;horizontal=1;startSize=40;horizontalStack=0;resizeParent=1;resizeParentMax=0;resizeLast=0;collapsible=1;marginBottom=0;fontColor=#FF0000;" parent="1" vertex="1">
                    <mxGeometry x="308" y="-2770" width="180" height="78" as="geometry"/>
                </mxCell>
                <mxCell id="LPrqTVwyO32H7xe0jWxw-20" value="" style="line;strokeWidth=1;fillColor=none;align=left;verticalAlign=middle;spacingTop=-1;spacingLeft=3;spacingRight=3;rotatable=0;labelPosition=right;points=[];portConstraint=eastwest;" parent="LPrqTVwyO32H7xe0jWxw-19" vertex="1">
                    <mxGeometry y="40" width="180" height="8" as="geometry"/>
                </mxCell>
                <mxCell id="LPrqTVwyO32H7xe0jWxw-21" value="+CreatePhone(arg): Phone" style="text;strokeColor=none;fillColor=none;align=left;verticalAlign=top;spacingLeft=4;spacingRight=4;overflow=hidden;rotatable=0;points=[[0,0.5],[1,0.5]];portConstraint=eastwest;" parent="LPrqTVwyO32H7xe0jWxw-19" vertex="1">
                    <mxGeometry y="48" width="180" height="30" as="geometry"/>
                </mxCell>
            </root>
        </mxGraphModel>
    </diagram>
    <diagram id="GqxT5DbUN5rUpzpiWchW" name="第 2 页">
        &#xa;        
        <mxGraphModel dx="835" dy="6480" grid="0" gridSize="10" guides="1" tooltips="1" connect="1" arrows="1" fold="1" page="1" pageScale="1" pageWidth="827" pageHeight="3000" math="0" shadow="0">
            &#xa;            
            <root>
                &#xa;                
                <mxCell id="YcliV-MDEmz9WEaWqkpm-0"/>
                &#xa;                
                <mxCell id="YcliV-MDEmz9WEaWqkpm-1" parent="YcliV-MDEmz9WEaWqkpm-0"/>
                &#xa;                
                <mxCell id="OH-NGPf-tz0q_ALwSbsI-4" value="" style="shape=umlLifeline;participant=umlActor;perimeter=lifelinePerimeter;whiteSpace=wrap;html=1;container=1;collapsible=0;recursiveResize=0;verticalAlign=top;spacingTop=36;labelBackgroundColor=#ffffff;outlineConnect=0;dashed=1;strokeWidth=2;" parent="YcliV-MDEmz9WEaWqkpm-1" vertex="1">
                    &#xa;                    
                    <mxGeometry x="50" y="-5760" width="30" height="240" as="geometry"/>
                    &#xa;                
                </mxCell>
                &#xa;                
                <mxCell id="WsukbBcP7y79H6mgp_u3-10" value="" style="endArrow=open;endFill=1;endSize=12;html=1;strokeWidth=2;" parent="OH-NGPf-tz0q_ALwSbsI-4" target="WsukbBcP7y79H6mgp_u3-9" edge="1">
                    &#xa;                    
                    <mxGeometry width="160" relative="1" as="geometry">
                        &#xa;                        
                        <mxPoint x="20" y="120" as="sourcePoint"/>
                        &#xa;                        
                        <mxPoint x="180" y="120" as="targetPoint"/>
                        &#xa;                    
                    </mxGeometry>
                    &#xa;                
                </mxCell>
                &#xa;                
                <mxCell id="ylOkWD0EDFI4Kuo16Kxo-6" value="" style="endArrow=block;endFill=1;endSize=12;html=1;strokeWidth=2;" parent="OH-NGPf-tz0q_ALwSbsI-4" edge="1">
                    &#xa;                    
                    <mxGeometry width="160" relative="1" as="geometry">
                        &#xa;                        
                        <mxPoint x="19" y="194" as="sourcePoint"/>
                        &#xa;                        
                        <mxPoint x="412" y="194" as="targetPoint"/>
                        &#xa;                    
                    </mxGeometry>
                    &#xa;                
                </mxCell>
                &#xa;                
                <mxCell id="WsukbBcP7y79H6mgp_u3-9" value="&lt;font style=&quot;font-size: 12px&quot;&gt;:PhoneFactory&lt;/font&gt;" style="shape=umlLifeline;perimeter=lifelinePerimeter;whiteSpace=wrap;html=1;container=1;collapsible=0;recursiveResize=0;outlineConnect=0;strokeWidth=2;" parent="YcliV-MDEmz9WEaWqkpm-1" vertex="1">
                    &#xa;                    
                    <mxGeometry x="210" y="-5760" width="100" height="250" as="geometry"/>
                    &#xa;                
                </mxCell>
                &#xa;                
                <mxCell id="A3NmM0RyveNz-u6qY1ek-0" value="" style="html=1;points=[];perimeter=orthogonalPerimeter;strokeWidth=2;" parent="WsukbBcP7y79H6mgp_u3-9" vertex="1">
                    &#xa;                    
                    <mxGeometry x="45" y="110" width="10" height="50" as="geometry"/>
                    &#xa;                
                </mxCell>
                &#xa;                
                <mxCell id="ylOkWD0EDFI4Kuo16Kxo-0" value="&lt;span style=&quot;color: rgb(240 , 240 , 240) ; font-family: &amp;#34;helvetica&amp;#34; ; font-size: 12px ; font-style: normal ; font-weight: 400 ; letter-spacing: normal ; text-align: left ; text-indent: 0px ; text-transform: none ; word-spacing: 0px ; background-color: rgb(42 , 42 , 42) ; float: none ; display: inline&quot;&gt;+CreatePhone(arg): Phone&lt;/span&gt;" style="text;whiteSpace=wrap;html=1;" parent="YcliV-MDEmz9WEaWqkpm-1" vertex="1">
                    &#xa;                    
                    <mxGeometry x="80" y="-5668" width="180" height="30" as="geometry"/>
                    &#xa;                
                </mxCell>
                &#xa;                
                <mxCell id="ylOkWD0EDFI4Kuo16Kxo-1" value="&lt;font style=&quot;font-size: 12px&quot;&gt;: XiaoMi&lt;/font&gt;" style="shape=umlLifeline;perimeter=lifelinePerimeter;whiteSpace=wrap;html=1;container=1;collapsible=0;recursiveResize=0;outlineConnect=0;strokeWidth=2;" parent="YcliV-MDEmz9WEaWqkpm-1" vertex="1">
                    &#xa;                    
                    <mxGeometry x="414" y="-5638" width="100" height="128" as="geometry"/>
                    &#xa;                
                </mxCell>
                &#xa;                
                <mxCell id="ylOkWD0EDFI4Kuo16Kxo-2" value="" style="html=1;points=[];perimeter=orthogonalPerimeter;strokeWidth=2;" parent="ylOkWD0EDFI4Kuo16Kxo-1" vertex="1">
                    &#xa;                    
                    <mxGeometry x="45" y="68" width="10" height="12" as="geometry"/>
                    &#xa;                
                </mxCell>
                &#xa;                
                <mxCell id="ylOkWD0EDFI4Kuo16Kxo-3" value="&lt;span style=&quot;color: rgb(240 , 240 , 240) ; font-family: &amp;#34;helvetica&amp;#34; ; font-size: 12px ; font-style: normal ; font-weight: 400 ; letter-spacing: normal ; text-align: left ; text-indent: 0px ; text-transform: none ; word-spacing: 0px ; background-color: rgb(42 , 42 , 42) ; float: none ; display: inline&quot;&gt;返回&amp;lt;&amp;lt;创建&amp;gt;&amp;gt;&lt;/span&gt;" style="text;whiteSpace=wrap;html=1;" parent="YcliV-MDEmz9WEaWqkpm-1" vertex="1">
                    &#xa;                    
                    <mxGeometry x="300" y="-5644" width="80" height="30" as="geometry"/>
                    &#xa;                
                </mxCell>
                &#xa;                
                <mxCell id="ylOkWD0EDFI4Kuo16Kxo-5" value="" style="endArrow=open;endFill=1;endSize=12;html=1;strokeWidth=2;dashed=1;" parent="YcliV-MDEmz9WEaWqkpm-1" edge="1">
                    &#xa;                    
                    <mxGeometry width="160" relative="1" as="geometry">
                        &#xa;                        
                        <mxPoint x="270" y="-5616" as="sourcePoint"/>
                        &#xa;                        
                        <mxPoint x="410" y="-5616" as="targetPoint"/>
                        &#xa;                    
                    </mxGeometry>
                    &#xa;                
                </mxCell>
                &#xa;                
                <mxCell id="NM9PHdFCtyh-GzvFAFuF-0" value="&lt;span style=&quot;color: rgb(240 , 240 , 240) ; font-family: &amp;#34;helvetica&amp;#34; ; font-size: 12px ; font-style: normal ; font-weight: 400 ; letter-spacing: normal ; text-align: left ; text-indent: 0px ; text-transform: none ; word-spacing: 0px ; background-color: rgb(42 , 42 , 42) ; float: none ; display: inline&quot;&gt;1.1&lt;/span&gt;" style="text;whiteSpace=wrap;html=1;" parent="YcliV-MDEmz9WEaWqkpm-1" vertex="1">
                    &#xa;                    
                    <mxGeometry x="110" y="-5638" width="20" height="30" as="geometry"/>
                    &#xa;                
                </mxCell>
                &#xa;                
                <mxCell id="NM9PHdFCtyh-GzvFAFuF-1" value="&lt;span style=&quot;color: rgb(240 , 240 , 240) ; font-family: &amp;#34;helvetica&amp;#34; ; font-size: 12px ; font-style: normal ; font-weight: 400 ; letter-spacing: normal ; text-align: left ; text-indent: 0px ; text-transform: none ; word-spacing: 0px ; background-color: rgb(42 , 42 , 42) ; float: none ; display: inline&quot;&gt;1.2&lt;/span&gt;" style="text;whiteSpace=wrap;html=1;" parent="YcliV-MDEmz9WEaWqkpm-1" vertex="1">
                    &#xa;                    
                    <mxGeometry x="330" y="-5614" width="20" height="30" as="geometry"/>
                    &#xa;                
                </mxCell>
                &#xa;                
                <mxCell id="NM9PHdFCtyh-GzvFAFuF-2" value="&lt;span style=&quot;color: rgb(240 , 240 , 240) ; font-family: &amp;#34;helvetica&amp;#34; ; font-size: 12px ; font-style: normal ; font-weight: 400 ; letter-spacing: normal ; text-align: left ; text-indent: 0px ; text-transform: none ; word-spacing: 0px ; background-color: rgb(42 , 42 , 42) ; float: none ; display: inline&quot;&gt;1.3&amp;nbsp;&amp;nbsp;&lt;/span&gt;" style="text;whiteSpace=wrap;html=1;" parent="YcliV-MDEmz9WEaWqkpm-1" vertex="1">
                    &#xa;                    
                    <mxGeometry x="100" y="-5566" width="60" height="30" as="geometry"/>
                    &#xa;                
                </mxCell>
                &#xa;                
                <mxCell id="NM9PHdFCtyh-GzvFAFuF-3" value="&lt;span style=&quot;color: rgb(240 , 240 , 240) ; font-family: &amp;#34;helvetica&amp;#34; ; font-size: 12px ; font-style: normal ; font-weight: 400 ; letter-spacing: normal ; text-align: left ; text-indent: 0px ; text-transform: none ; word-spacing: 0px ; background-color: rgb(42 , 42 , 42) ; float: none ; display: inline&quot;&gt;调用产品函数&amp;nbsp; &amp;nbsp;call()&lt;/span&gt;" style="text;whiteSpace=wrap;html=1;" parent="YcliV-MDEmz9WEaWqkpm-1" vertex="1">
                    &#xa;                    
                    <mxGeometry x="100" y="-5590" width="140" height="30" as="geometry"/>
                    &#xa;                
                </mxCell>
                &#xa;                
                <mxCell id="NM9PHdFCtyh-GzvFAFuF-4" value="" style="shape=umlDestroy;whiteSpace=wrap;html=1;strokeWidth=3;" parent="YcliV-MDEmz9WEaWqkpm-1" vertex="1">
                    &#xa;                    
                    <mxGeometry x="454.5" y="-5510" width="19" height="10" as="geometry"/>
                    &#xa;                
                </mxCell>
                &#xa;            
            </root>
            &#xa;        
        </mxGraphModel>
        &#xa;    
    </diagram>
    <diagram id="7zdInmmqJVZZddCzlzYQ" name="增加产品">
        &#xa;        &#xa;        &#xa;        &#xa;        &#xa;        
        <mxGraphModel dx="761" dy="3331" grid="0" gridSize="10" guides="1" tooltips="1" connect="1" arrows="1" fold="1" page="1" pageScale="1" pageWidth="1500" pageHeight="1000" math="0" shadow="0">
            &#xa;            &#xa;            &#xa;            &#xa;            &#xa;            
            <root>
                &#xa;                &#xa;                &#xa;                &#xa;                &#xa;                
                <mxCell id="sdn3zyctudOTxT8fEXAI-0"/>
                &#xa;                &#xa;                &#xa;                &#xa;                &#xa;                
                <mxCell id="sdn3zyctudOTxT8fEXAI-1" parent="sdn3zyctudOTxT8fEXAI-0"/>
                &#xa;                &#xa;                &#xa;                &#xa;                &#xa;                
                <mxCell id="wQ-sz_Q0fq9rv3qAn3DZ-0" value="" style="endArrow=open;dashed=1;endFill=0;endSize=12;html=1;strokeWidth=2;exitX=0.438;exitY=0;exitDx=0;exitDy=0;exitPerimeter=0;" parent="sdn3zyctudOTxT8fEXAI-1" source="wQ-sz_Q0fq9rv3qAn3DZ-15" edge="1">
                    &#xa;                    &#xa;                    &#xa;                    &#xa;                    &#xa;                    
                    <mxGeometry width="160" relative="1" as="geometry">
                        &#xa;                        &#xa;                        &#xa;                        &#xa;                        &#xa;                        
                        <mxPoint x="240" y="-2389" as="sourcePoint"/>
                        &#xa;                        &#xa;                        &#xa;                        &#xa;                        &#xa;                        
                        <mxPoint x="230" y="-2530" as="targetPoint"/>
                        &#xa;                        &#xa;                        &#xa;                    &#xa;                    &#xa;                    
                    </mxGeometry>
                    &#xa;                    &#xa;                    &#xa;                &#xa;                &#xa;                
                </mxCell>
                &#xa;                &#xa;                &#xa;                &#xa;                &#xa;                
                <mxCell id="wQ-sz_Q0fq9rv3qAn3DZ-1" value="&lt;p style=&quot;margin: 0px ; margin-top: 4px ; text-align: center&quot;&gt;&lt;b&gt;&amp;lt;&amp;lt;&amp;nbsp; interface&amp;nbsp; &amp;gt;&amp;gt;&lt;/b&gt;&lt;br&gt;&lt;/p&gt;&lt;p style=&quot;margin: 4px 0px 0px ; text-align: center&quot;&gt;&lt;b&gt;Phone&lt;/b&gt;&lt;/p&gt;&lt;hr size=&quot;1&quot;&gt;&lt;p style=&quot;margin: 0px ; margin-left: 4px&quot;&gt;+ call()&lt;br&gt;&lt;/p&gt;" style="verticalAlign=top;align=left;overflow=fill;fontSize=12;fontFamily=Helvetica;html=1;" parent="sdn3zyctudOTxT8fEXAI-1" vertex="1">
                    &#xa;                    &#xa;                    &#xa;                    &#xa;                    &#xa;                    
                    <mxGeometry x="300" y="-2830" width="190" height="70" as="geometry"/>
                    &#xa;                    &#xa;                    &#xa;                &#xa;                &#xa;                
                </mxCell>
                &#xa;                &#xa;                &#xa;                &#xa;                &#xa;                
                <mxCell id="wQ-sz_Q0fq9rv3qAn3DZ-2" value="" style="strokeWidth=2;html=1;shape=mxgraph.flowchart.annotation_1;align=left;pointerEvents=1;dashed=1;direction=south;endArrow=block;dashed=1;endFill=0;endSize=12;html=1;strokeWidth=2;exitX=0.025;exitY=0.971;exitDx=0;exitDy=0;exitPerimeter=0;" parent="sdn3zyctudOTxT8fEXAI-1" vertex="1">
                    &#xa;                    &#xa;                    &#xa;                    &#xa;                    &#xa;                    
                    <mxGeometry x="240" y="-2688" width="310" height="60" as="geometry"/>
                    &#xa;                    &#xa;                    &#xa;                &#xa;                &#xa;                
                </mxCell>
                &#xa;                &#xa;                &#xa;                &#xa;                &#xa;                
                <mxCell id="wQ-sz_Q0fq9rv3qAn3DZ-3" value="" style="endArrow=block;dashed=1;endFill=0;endSize=12;html=1;strokeWidth=2;" parent="sdn3zyctudOTxT8fEXAI-1" source="wQ-sz_Q0fq9rv3qAn3DZ-2" edge="1">
                    &#xa;                    &#xa;                    &#xa;                    &#xa;                    &#xa;                    
                    <mxGeometry width="160" relative="1" as="geometry">
                        &#xa;                        &#xa;                        &#xa;                        &#xa;                        &#xa;                        
                        <mxPoint x="396" y="-2680" as="sourcePoint"/>
                        &#xa;                        &#xa;                        &#xa;                        &#xa;                        &#xa;                        
                        <mxPoint x="395.5" y="-2746" as="targetPoint"/>
                        &#xa;                        &#xa;                        &#xa;                    &#xa;                    &#xa;                    
                    </mxGeometry>
                    &#xa;                    &#xa;                    &#xa;                &#xa;                &#xa;                
                </mxCell>
                &#xa;                &#xa;                &#xa;                &#xa;                &#xa;                
                <mxCell id="wQ-sz_Q0fq9rv3qAn3DZ-4" value="" style="endArrow=open;dashed=1;endFill=0;endSize=12;html=1;strokeWidth=2;exitX=0.557;exitY=-0.028;exitDx=0;exitDy=0;exitPerimeter=0;" parent="sdn3zyctudOTxT8fEXAI-1" source="wQ-sz_Q0fq9rv3qAn3DZ-15" edge="1">
                    &#xa;                    &#xa;                    &#xa;                    &#xa;                    &#xa;                    
                    <mxGeometry width="160" relative="1" as="geometry">
                        &#xa;                        &#xa;                        &#xa;                        &#xa;                        &#xa;                        
                        <mxPoint x="270" y="-2409" as="sourcePoint"/>
                        &#xa;                        &#xa;                        &#xa;                        &#xa;                        &#xa;                        
                        <mxPoint x="510" y="-2529" as="targetPoint"/>
                        &#xa;                        &#xa;                        &#xa;                    &#xa;                    &#xa;                    
                    </mxGeometry>
                    &#xa;                    &#xa;                    &#xa;                &#xa;                &#xa;                
                </mxCell>
                &#xa;                &#xa;                &#xa;                &#xa;                &#xa;                
                <mxCell id="wQ-sz_Q0fq9rv3qAn3DZ-5" value="实现" style="text;align=center;fontStyle=1;verticalAlign=middle;spacingLeft=3;spacingRight=3;strokeColor=none;rotatable=0;points=[[0,0.5],[1,0.5]];portConstraint=eastwest;dashed=1;" parent="sdn3zyctudOTxT8fEXAI-1" vertex="1">
                    &#xa;                    &#xa;                    &#xa;                    &#xa;                    &#xa;                    
                    <mxGeometry x="250" y="-2714" width="80" height="26" as="geometry"/>
                    &#xa;                    &#xa;                    &#xa;                &#xa;                &#xa;                
                </mxCell>
                &#xa;                &#xa;                &#xa;                &#xa;                &#xa;                
                <mxCell id="wQ-sz_Q0fq9rv3qAn3DZ-6" value="实现" style="text;align=center;fontStyle=1;verticalAlign=middle;spacingLeft=3;spacingRight=3;strokeColor=none;rotatable=0;points=[[0,0.5],[1,0.5]];portConstraint=eastwest;dashed=1;" parent="sdn3zyctudOTxT8fEXAI-1" vertex="1">
                    &#xa;                    &#xa;                    &#xa;                    &#xa;                    &#xa;                    
                    <mxGeometry x="479" y="-2714" width="80" height="26" as="geometry"/>
                    &#xa;                    &#xa;                    &#xa;                &#xa;                &#xa;                
                </mxCell>
                &#xa;                &#xa;                &#xa;                &#xa;                &#xa;                
                <mxCell id="wQ-sz_Q0fq9rv3qAn3DZ-7" value="依赖/使用" style="text;align=center;fontStyle=1;verticalAlign=middle;spacingLeft=3;spacingRight=3;strokeColor=none;rotatable=0;points=[[0,0.5],[1,0.5]];portConstraint=eastwest;dashed=1;" parent="sdn3zyctudOTxT8fEXAI-1" vertex="1">
                    &#xa;                    &#xa;                    &#xa;                    &#xa;                    &#xa;                    
                    <mxGeometry x="160" y="-2467" width="80" height="26" as="geometry"/>
                    &#xa;                    &#xa;                    &#xa;                &#xa;                &#xa;                
                </mxCell>
                &#xa;                &#xa;                &#xa;                &#xa;                &#xa;                
                <mxCell id="wQ-sz_Q0fq9rv3qAn3DZ-8" value="依赖/使用" style="text;align=center;fontStyle=1;verticalAlign=middle;spacingLeft=3;spacingRight=3;strokeColor=none;rotatable=0;points=[[0,0.5],[1,0.5]];portConstraint=eastwest;dashed=1;" parent="sdn3zyctudOTxT8fEXAI-1" vertex="1">
                    &#xa;                    &#xa;                    &#xa;                    &#xa;                    &#xa;                    
                    <mxGeometry x="410" y="-2467" width="80" height="26" as="geometry"/>
                    &#xa;                    &#xa;                    &#xa;                &#xa;                &#xa;                
                </mxCell>
                &#xa;                &#xa;                &#xa;                &#xa;                &#xa;                
                <mxCell id="wQ-sz_Q0fq9rv3qAn3DZ-18" value="Actor" style="shape=umlActor;verticalLabelPosition=bottom;labelBackgroundColor=#ffffff;verticalAlign=top;html=1;strokeWidth=2;" parent="sdn3zyctudOTxT8fEXAI-1" vertex="1">
                    &#xa;                    &#xa;                    &#xa;                    &#xa;                    &#xa;                    
                    <mxGeometry x="150" y="-2280" width="30" height="60" as="geometry"/>
                    &#xa;                    &#xa;                    &#xa;                &#xa;                &#xa;                
                </mxCell>
                &#xa;                &#xa;                &#xa;                &#xa;                &#xa;                
                <mxCell id="wQ-sz_Q0fq9rv3qAn3DZ-19" value="arg" style="text;align=center;fontStyle=1;verticalAlign=middle;spacingLeft=3;spacingRight=3;strokeColor=none;rotatable=0;points=[[0,0.5],[1,0.5]];portConstraint=eastwest;dashed=1;fontSize=13;" parent="sdn3zyctudOTxT8fEXAI-1" vertex="1">
                    &#xa;                    &#xa;                    &#xa;                    &#xa;                    &#xa;                    
                    <mxGeometry x="260" y="-2262" width="30" height="26" as="geometry"/>
                    &#xa;                    &#xa;                    &#xa;                &#xa;                &#xa;                
                </mxCell>
                &#xa;                &#xa;                &#xa;                &#xa;                &#xa;                
                <mxCell id="wQ-sz_Q0fq9rv3qAn3DZ-20" value="" style="endArrow=open;startArrow=none;endFill=0;startFill=0;endSize=8;startSize=10;html=1;strokeWidth=2;fontSize=13;" parent="sdn3zyctudOTxT8fEXAI-1" target="wQ-sz_Q0fq9rv3qAn3DZ-19" edge="1">
                    &#xa;                    &#xa;                    &#xa;                    &#xa;                    &#xa;                    
                    <mxGeometry width="160" relative="1" as="geometry">
                        &#xa;                        &#xa;                        &#xa;                        &#xa;                        &#xa;                        
                        <mxPoint x="180" y="-2250.24" as="sourcePoint"/>
                        &#xa;                        &#xa;                        &#xa;                        &#xa;                        &#xa;                        
                        <mxPoint x="240" y="-2250.24" as="targetPoint"/>
                        &#xa;                        &#xa;                        &#xa;                        &#xa;                        &#xa;                        
                        <Array as="points"/>
                        &#xa;                        &#xa;                        &#xa;                    &#xa;                    &#xa;                    
                    </mxGeometry>
                    &#xa;                    &#xa;                    &#xa;                &#xa;                &#xa;                
                </mxCell>
                &#xa;                &#xa;                &#xa;                &#xa;                &#xa;                
                <mxCell id="wQ-sz_Q0fq9rv3qAn3DZ-21" value="" style="endArrow=open;endFill=1;endSize=12;html=1;strokeWidth=2;fontSize=13;" parent="sdn3zyctudOTxT8fEXAI-1" edge="1">
                    &#xa;                    &#xa;                    &#xa;                    &#xa;                    &#xa;                    
                    <mxGeometry width="160" relative="1" as="geometry">
                        &#xa;                        &#xa;                        &#xa;                        &#xa;                        &#xa;                        
                        <mxPoint x="274.79999999999995" y="-2262" as="sourcePoint"/>
                        &#xa;                        &#xa;                        &#xa;                        &#xa;                        &#xa;                        
                        <mxPoint x="275" y="-2312" as="targetPoint"/>
                        &#xa;                        &#xa;                        &#xa;                    &#xa;                    &#xa;                    
                    </mxGeometry>
                    &#xa;                    &#xa;                    &#xa;                &#xa;                &#xa;                
                </mxCell>
                &#xa;                &#xa;                &#xa;                &#xa;                &#xa;                
                <mxCell id="wQ-sz_Q0fq9rv3qAn3DZ-9" value="&lt;&lt;  struct  &gt;&gt;&#10;Xiaomi" style="swimlane;fontStyle=1;align=center;verticalAlign=top;childLayout=stackLayout;horizontal=1;startSize=40;horizontalStack=0;resizeParent=1;resizeParentMax=0;resizeLast=0;collapsible=1;marginBottom=0;" parent="sdn3zyctudOTxT8fEXAI-1" vertex="1">
                    &#xa;                    &#xa;                    &#xa;                    &#xa;                    &#xa;                    
                    <mxGeometry x="170" y="-2620" width="160" height="74" as="geometry"/>
                    &#xa;                    &#xa;                    &#xa;                &#xa;                &#xa;                
                </mxCell>
                &#xa;                &#xa;                &#xa;                &#xa;                &#xa;                
                <mxCell id="wQ-sz_Q0fq9rv3qAn3DZ-10" value="" style="line;strokeWidth=1;fillColor=none;align=left;verticalAlign=middle;spacingTop=-1;spacingLeft=3;spacingRight=3;rotatable=0;labelPosition=right;points=[];portConstraint=eastwest;" parent="wQ-sz_Q0fq9rv3qAn3DZ-9" vertex="1">
                    &#xa;                    &#xa;                    &#xa;                    &#xa;                    &#xa;                    
                    <mxGeometry y="40" width="160" height="8" as="geometry"/>
                    &#xa;                    &#xa;                    &#xa;                &#xa;                &#xa;                
                </mxCell>
                &#xa;                &#xa;                &#xa;                &#xa;                &#xa;                
                <mxCell id="wQ-sz_Q0fq9rv3qAn3DZ-11" value="+call()" style="text;strokeColor=none;fillColor=none;align=left;verticalAlign=top;spacingLeft=4;spacingRight=4;overflow=hidden;rotatable=0;points=[[0,0.5],[1,0.5]];portConstraint=eastwest;" parent="wQ-sz_Q0fq9rv3qAn3DZ-9" vertex="1">
                    &#xa;                    &#xa;                    &#xa;                    &#xa;                    &#xa;                    
                    <mxGeometry y="48" width="160" height="26" as="geometry"/>
                    &#xa;                    &#xa;                    &#xa;                &#xa;                &#xa;                
                </mxCell>
                &#xa;                &#xa;                &#xa;                &#xa;                &#xa;                
                <mxCell id="wQ-sz_Q0fq9rv3qAn3DZ-12" value="&lt;&lt;  struct  &gt;&gt;&#10;Huawei" style="swimlane;fontStyle=1;align=center;verticalAlign=top;childLayout=stackLayout;horizontal=1;startSize=40;horizontalStack=0;resizeParent=1;resizeParentMax=0;resizeLast=0;collapsible=1;marginBottom=0;" parent="sdn3zyctudOTxT8fEXAI-1" vertex="1">
                    &#xa;                    &#xa;                    &#xa;                    &#xa;                    &#xa;                    
                    <mxGeometry x="470" y="-2620" width="160" height="74" as="geometry"/>
                    &#xa;                    &#xa;                    &#xa;                &#xa;                &#xa;                
                </mxCell>
                &#xa;                &#xa;                &#xa;                &#xa;                &#xa;                
                <mxCell id="wQ-sz_Q0fq9rv3qAn3DZ-13" value="" style="line;strokeWidth=1;fillColor=none;align=left;verticalAlign=middle;spacingTop=-1;spacingLeft=3;spacingRight=3;rotatable=0;labelPosition=right;points=[];portConstraint=eastwest;" parent="wQ-sz_Q0fq9rv3qAn3DZ-12" vertex="1">
                    &#xa;                    &#xa;                    &#xa;                    &#xa;                    &#xa;                    
                    <mxGeometry y="40" width="160" height="8" as="geometry"/>
                    &#xa;                    &#xa;                    &#xa;                &#xa;                &#xa;                
                </mxCell>
                &#xa;                &#xa;                &#xa;                &#xa;                &#xa;                
                <mxCell id="wQ-sz_Q0fq9rv3qAn3DZ-14" value="+call()" style="text;strokeColor=none;fillColor=none;align=left;verticalAlign=top;spacingLeft=4;spacingRight=4;overflow=hidden;rotatable=0;points=[[0,0.5],[1,0.5]];portConstraint=eastwest;" parent="wQ-sz_Q0fq9rv3qAn3DZ-12" vertex="1">
                    &#xa;                    &#xa;                    &#xa;                    &#xa;                    &#xa;                    
                    <mxGeometry y="48" width="160" height="26" as="geometry"/>
                    &#xa;                    &#xa;                    &#xa;                &#xa;                &#xa;                
                </mxCell>
                &#xa;                &#xa;                &#xa;                &#xa;                &#xa;                
                <mxCell id="wQ-sz_Q0fq9rv3qAn3DZ-15" value="&lt;&lt;  struct  &gt;&gt;&#10;PhoneFactory" style="swimlane;fontStyle=1;align=center;verticalAlign=top;childLayout=stackLayout;horizontal=1;startSize=40;horizontalStack=0;resizeParent=1;resizeParentMax=0;resizeLast=0;collapsible=1;marginBottom=0;" parent="sdn3zyctudOTxT8fEXAI-1" vertex="1">
                    &#xa;                    &#xa;                    &#xa;                    &#xa;                    &#xa;                    
                    <mxGeometry x="180" y="-2400" width="180" height="78" as="geometry"/>
                    &#xa;                    &#xa;                    &#xa;                &#xa;                &#xa;                
                </mxCell>
                &#xa;                &#xa;                &#xa;                &#xa;                &#xa;                
                <mxCell id="wQ-sz_Q0fq9rv3qAn3DZ-16" value="" style="line;strokeWidth=1;fillColor=none;align=left;verticalAlign=middle;spacingTop=-1;spacingLeft=3;spacingRight=3;rotatable=0;labelPosition=right;points=[];portConstraint=eastwest;" parent="wQ-sz_Q0fq9rv3qAn3DZ-15" vertex="1">
                    &#xa;                    &#xa;                    &#xa;                    &#xa;                    &#xa;                    
                    <mxGeometry y="40" width="180" height="8" as="geometry"/>
                    &#xa;                    &#xa;                    &#xa;                &#xa;                &#xa;                
                </mxCell>
                &#xa;                &#xa;                &#xa;                &#xa;                &#xa;                
                <mxCell id="wQ-sz_Q0fq9rv3qAn3DZ-17" value="+CreatePhone(arg): Phone" style="text;strokeColor=none;fillColor=none;align=left;verticalAlign=top;spacingLeft=4;spacingRight=4;overflow=hidden;rotatable=0;points=[[0,0.5],[1,0.5]];portConstraint=eastwest;" parent="wQ-sz_Q0fq9rv3qAn3DZ-15" vertex="1">
                    &#xa;                    &#xa;                    &#xa;                    &#xa;                    &#xa;                    
                    <mxGeometry y="48" width="180" height="30" as="geometry"/>
                    &#xa;                    &#xa;                    &#xa;                &#xa;                &#xa;                
                </mxCell>
                &#xa;                &#xa;                &#xa;                &#xa;                &#xa;                
                <mxCell id="wQ-sz_Q0fq9rv3qAn3DZ-22" value="&lt;&lt;  struct  &gt;&gt;&#10;Huawei" style="swimlane;fontStyle=1;align=center;verticalAlign=top;childLayout=stackLayout;horizontal=1;startSize=40;horizontalStack=0;resizeParent=1;resizeParentMax=0;resizeLast=0;collapsible=1;marginBottom=0;strokeColor=#66CC00;" parent="sdn3zyctudOTxT8fEXAI-1" vertex="1">
                    &#xa;                    &#xa;                    &#xa;                    &#xa;                    &#xa;                    
                    <mxGeometry x="700" y="-2620" width="160" height="74" as="geometry"/>
                    &#xa;                    &#xa;                    &#xa;                &#xa;                &#xa;                
                </mxCell>
                &#xa;                &#xa;                &#xa;                &#xa;                &#xa;                
                <mxCell id="wQ-sz_Q0fq9rv3qAn3DZ-23" value="" style="line;strokeWidth=1;fillColor=none;align=left;verticalAlign=middle;spacingTop=-1;spacingLeft=3;spacingRight=3;rotatable=0;labelPosition=right;points=[];portConstraint=eastwest;strokeColor=#66CC00;" parent="wQ-sz_Q0fq9rv3qAn3DZ-22" vertex="1">
                    &#xa;                    &#xa;                    &#xa;                    &#xa;                    &#xa;                    
                    <mxGeometry y="40" width="160" height="8" as="geometry"/>
                    &#xa;                    &#xa;                    &#xa;                &#xa;                &#xa;                
                </mxCell>
                &#xa;                &#xa;                &#xa;                &#xa;                &#xa;                
                <mxCell id="wQ-sz_Q0fq9rv3qAn3DZ-24" value="+call()" style="text;strokeColor=none;fillColor=none;align=left;verticalAlign=top;spacingLeft=4;spacingRight=4;overflow=hidden;rotatable=0;points=[[0,0.5],[1,0.5]];portConstraint=eastwest;" parent="wQ-sz_Q0fq9rv3qAn3DZ-22" vertex="1">
                    &#xa;                    &#xa;                    &#xa;                    &#xa;                    &#xa;                    
                    <mxGeometry y="48" width="160" height="26" as="geometry"/>
                    &#xa;                    &#xa;                    &#xa;                &#xa;                &#xa;                
                </mxCell>
                &#xa;                &#xa;                &#xa;                &#xa;                &#xa;                
                <mxCell id="wQ-sz_Q0fq9rv3qAn3DZ-25" value="" style="endArrow=block;dashed=1;endFill=0;endSize=12;html=1;strokeWidth=2;fontSize=13;edgeStyle=orthogonalEdgeStyle;strokeColor=#66CC00;" parent="sdn3zyctudOTxT8fEXAI-1" edge="1">
                    &#xa;                    &#xa;                    &#xa;                    &#xa;                    &#xa;                    
                    <mxGeometry width="160" relative="1" as="geometry">
                        &#xa;                        &#xa;                        &#xa;                        &#xa;                        &#xa;                        
                        <mxPoint x="770" y="-2628" as="sourcePoint"/>
                        &#xa;                        &#xa;                        &#xa;                        &#xa;                        &#xa;                        
                        <mxPoint x="500" y="-2786" as="targetPoint"/>
                        &#xa;                        &#xa;                        &#xa;                        &#xa;                        &#xa;                        
                        <Array as="points">
                            &#xa;                            &#xa;                            &#xa;                            &#xa;                            &#xa;                            
                            <mxPoint x="770" y="-2776"/>
                            &#xa;                            &#xa;                            &#xa;                            &#xa;                            &#xa;                            
                            <mxPoint x="770" y="-2776"/>
                            &#xa;                            &#xa;                            &#xa;                        &#xa;                        &#xa;                        
                        </Array>
                        &#xa;                        &#xa;                        &#xa;                    &#xa;                    &#xa;                    
                    </mxGeometry>
                    &#xa;                    &#xa;                    &#xa;                &#xa;                &#xa;                
                </mxCell>
                &#xa;                &#xa;                &#xa;                &#xa;                &#xa;                
                <mxCell id="wQ-sz_Q0fq9rv3qAn3DZ-26" value="实现" style="text;align=center;fontStyle=1;verticalAlign=middle;spacingLeft=3;spacingRight=3;strokeColor=none;rotatable=0;points=[[0,0.5],[1,0.5]];portConstraint=eastwest;dashed=1;" parent="sdn3zyctudOTxT8fEXAI-1" vertex="1">
                    &#xa;                    &#xa;                    &#xa;                    &#xa;                    &#xa;                    
                    <mxGeometry x="620" y="-2780" width="80" height="26" as="geometry"/>
                    &#xa;                    &#xa;                    &#xa;                &#xa;                &#xa;                
                </mxCell>
                &#xa;                &#xa;                &#xa;                &#xa;                &#xa;                
                <mxCell id="wQ-sz_Q0fq9rv3qAn3DZ-27" value="" style="endArrow=open;dashed=1;endFill=0;endSize=12;html=1;strokeWidth=2;fontSize=13;edgeStyle=orthogonalEdgeStyle;strokeColor=#66CC00;movable=1;resizable=1;rotatable=1;deletable=1;editable=1;connectable=1;" parent="sdn3zyctudOTxT8fEXAI-1" edge="1">
                    &#xa;                    &#xa;                    &#xa;                    &#xa;                    &#xa;                    
                    <mxGeometry width="160" relative="1" as="geometry">
                        &#xa;                        &#xa;                        &#xa;                        &#xa;                        &#xa;                        
                        <mxPoint x="370" y="-2346" as="sourcePoint"/>
                        &#xa;                        &#xa;                        &#xa;                        &#xa;                        &#xa;                        
                        <mxPoint x="770" y="-2546" as="targetPoint"/>
                        &#xa;                        &#xa;                        &#xa;                        &#xa;                        &#xa;                        
                        <Array as="points">
                            &#xa;                            &#xa;                            &#xa;                            &#xa;                            &#xa;                            
                            <mxPoint x="630" y="-2346"/>
                            &#xa;                            &#xa;                            &#xa;                            &#xa;                            &#xa;                            
                            <mxPoint x="630" y="-2346"/>
                            &#xa;                            &#xa;                            &#xa;                        &#xa;                        &#xa;                        
                        </Array>
                        &#xa;                        &#xa;                        &#xa;                    &#xa;                    &#xa;                    
                    </mxGeometry>
                    &#xa;                    &#xa;                    &#xa;                &#xa;                &#xa;                
                </mxCell>
                &#xa;                &#xa;                &#xa;                &#xa;                &#xa;                
                <mxCell id="wQ-sz_Q0fq9rv3qAn3DZ-28" value="依赖/使用" style="text;align=center;fontStyle=1;verticalAlign=middle;spacingLeft=3;spacingRight=3;strokeColor=none;rotatable=0;points=[[0,0.5],[1,0.5]];portConstraint=eastwest;dashed=1;" parent="sdn3zyctudOTxT8fEXAI-1" vertex="1">
                    &#xa;                    &#xa;                    &#xa;                    &#xa;                    &#xa;                    
                    <mxGeometry x="500" y="-2374" width="80" height="26" as="geometry"/>
                    &#xa;                    &#xa;                    &#xa;                &#xa;                &#xa;                
                </mxCell>
                &#xa;                &#xa;                &#xa;                &#xa;                &#xa;                
                <mxCell id="wQ-sz_Q0fq9rv3qAn3DZ-29" value="只用修改工厂参数即可" style="text;align=center;fontStyle=1;verticalAlign=middle;spacingLeft=3;spacingRight=3;strokeColor=none;rotatable=0;points=[[0,0.5],[1,0.5]];portConstraint=eastwest;dashed=1;" parent="sdn3zyctudOTxT8fEXAI-1" vertex="1">
                    &#xa;                    &#xa;                    &#xa;                    &#xa;                    &#xa;                    
                    <mxGeometry x="500" y="-2340" width="80" height="26" as="geometry"/>
                    &#xa;                    &#xa;                    &#xa;                &#xa;                &#xa;                
                </mxCell>
                &#xa;                &#xa;                &#xa;            &#xa;            &#xa;            
            </root>
            &#xa;            &#xa;            &#xa;        &#xa;        &#xa;        
        </mxGraphModel>
        &#xa;        &#xa;        &#xa;    &#xa;    &#xa;    
    </diagram>
</mxfile>